<svg width="24" height="20" viewBox="0 0 24 20" fill="none" xmlns="http://www.w3.org/2000/svg">
<path d="M20.3303 2.25767C18.7535 1.51948 17.0888 0.995779 15.3789 0.699951C15.1449 1.12767 14.9332 1.56774 14.7446 2.01832C12.9232 1.73766 11.071 1.73766 9.24961 2.01832C9.06095 1.56779 8.84924 1.12773 8.61535 0.699951C6.90433 0.998277 5.2386 1.52322 3.66019 2.26153C0.526644 7.00225 -0.322811 11.6252 0.101917 16.1826C1.937 17.569 3.99098 18.6234 6.17458 19.3C6.66626 18.6237 7.10134 17.9064 7.47519 17.1554C6.76511 16.8842 6.07975 16.5497 5.42706 16.1556C5.59884 16.0282 5.76684 15.8969 5.92918 15.7695C7.82837 16.6828 9.90124 17.1563 12 17.1563C14.0987 17.1563 16.1715 16.6828 18.0707 15.7695C18.235 15.9066 18.403 16.0378 18.5729 16.1556C17.9189 16.5503 17.2323 16.8855 16.5209 17.1574C16.8943 17.9079 17.3294 18.6247 17.8216 19.3C20.007 18.6261 22.0626 17.5722 23.898 16.1845C24.3963 10.8995 23.0467 6.31894 20.3303 2.25767ZM8.01318 13.3798C6.82961 13.3798 5.85179 12.2815 5.85179 10.9303C5.85179 9.57915 6.79563 8.47118 8.0094 8.47118C9.22318 8.47118 10.1934 9.57915 10.1727 10.9303C10.1519 12.2815 9.21941 13.3798 8.01318 13.3798ZM15.9867 13.3798C14.8013 13.3798 13.8272 12.2815 13.8272 10.9303C13.8272 9.57915 14.7711 8.47118 15.9867 8.47118C17.2024 8.47118 18.1651 9.57915 18.1444 10.9303C18.1236 12.2815 17.193 13.3798 15.9867 13.3798Z" fill="#2375EF"/>
</svg>
